<?xml version="1.0" encoding="UTF-8"?>
<svg width="741px" height="264px" viewBox="0 0 741 264" version="1.1" xmlns="http://www.w3.org/2000/svg" xmlns:xlink="http://www.w3.org/1999/xlink">
    <!-- Generator: Sketch 52.6 (67491) - http://www.bohemiancoding.com/sketch -->
    <title>Group 2</title>
    <desc>Created with Sketch.</desc>
    <defs>
        <radialGradient cx="0%" cy="50%" fx="0%" fy="50%" r="100%" gradientTransform="translate(0.000000,0.500000),scale(1.000000,1.012377),translate(-0.000000,-0.500000)" id="radialGradient-1">
            <stop stop-color="#8B5CF6" offset="0%"></stop>
            <stop stop-color="#8D60F6" offset="57.4168586%"></stop>
            <stop stop-color="#A78BFA" offset="100%"></stop>
        </radialGradient>
    </defs>
    <g id="Page-1" stroke="none" stroke-width="1" fill="none" fill-rule="evenodd">
        <g id="without-letterspacing" transform="translate(-2319.000000, -975.000000)">
            <g id="Group-2" transform="translate(2306.000000, 957.000000)">
                <path d="M266.929196,67.8 L266.929196,205.084716 C266.929196,208.398425 264.242905,211.084716 260.929196,211.084716 L230.37025,211.084716 C227.900451,211.084716 225.898285,209.082549 225.898285,206.612751 C217.770715,210.470936 209.2937,212.4 200.466984,212.4 C182.114408,212.4 164.110065,201.638032 153.40597,190.43476 C142.701875,179.231488 143.89987,184.039522 148.691849,167.812406 L167.858814,105.912035 C167.859449,105.909987 167.860082,105.907938 167.860714,105.905888 L171.38218,94.4898803 C171.675406,93.5392913 172.683717,93.006393 173.634306,93.2996188 C174.389469,93.5325617 174.904595,94.2305389 174.904595,95.0208125 L174.904595,137.691878 C174.904595,146.811225 177.438961,154.659006 182.507767,161.235459 C187.489181,167.899597 193.475527,171.231616 200.466984,171.231616 C207.371049,171.231616 213.313699,167.899597 218.295112,161.235459 C223.363919,154.659006 225.898285,146.811225 225.898285,137.691878 L225.898285,67.8 C225.898285,64.4862915 228.584576,61.8 231.898285,61.8 L260.929196,61.8 C264.242905,61.8 266.929196,64.4862915 266.929196,67.8 Z" id="Path" fill="#FFFFFF" fill-rule="nonzero"></path>
                <path d="M419.888624,68.0985782 L419.888624,205.720024 C419.801004,226.618469 412.441067,244.412486 397.808591,259.102607 C383.176115,273.96761 365.564836,281.4 344.974227,281.4 C329.377935,281.4 315.096152,276.896846 302.128449,267.890403 C294.594045,262.570794 286.553728,252.796738 278.0075,238.568234 C276.301269,235.727556 277.220922,232.04156 280.0616,230.335331 C280.375841,230.146585 280.706718,229.987033 281.050079,229.858678 L308.989155,219.414518 C311.658502,218.416664 314.661474,219.434114 316.174527,221.849025 C319.637908,227.376756 322.929227,231.225423 326.048484,233.395024 C331.743759,237.417319 338.052277,239.428436 344.974227,239.428436 C354.086667,239.428436 361.840886,236.10572 368.237118,229.46019 C372.559686,225.029836 375.801596,217.029006 377.962847,205.457701 L377.962847,204.801896 C377.962847,204.547645 377.756736,204.341535 377.502486,204.341535 C377.449351,204.341535 377.396618,204.350733 377.346621,204.368723 C363.421397,209.379303 352.6306,211.884597 344.974227,211.884597 C324.208378,211.884597 306.509481,204.495927 291.877005,189.718365 C277.244529,174.76592 269.928401,156.884464 269.928401,136.07346 C269.928401,115.087573 277.244529,97.1623966 291.877005,82.2973934 C306.509481,67.4323901 324.208378,60 344.974227,60 C356.627636,60 367.623732,62.6231965 377.962847,67.8696682 C377.962847,64.6823832 380.546652,62.0985782 383.733937,62.0985782 L413.888624,62.0985782 C417.202332,62.0985782 419.888624,64.7848697 419.888624,68.0985782 Z M344.974227,170.044194 C354.086667,170.044194 361.840886,166.721479 368.237118,160.075948 C374.72097,153.430417 377.962847,145.429668 377.962847,136.07346 L377.962847,135.942299 C377.962847,126.586091 374.72097,118.541621 368.237118,111.808649 C361.840886,105.25056 354.086667,101.971564 344.974227,101.971564 C335.861787,101.971564 328.063758,105.25056 321.579906,111.808649 C315.096055,118.541621 311.854178,126.629811 311.854178,136.07346 C311.854178,145.429668 315.096055,153.430417 321.579906,160.075948 C328.063758,166.721479 335.861787,170.044194 344.974227,170.044194 Z" id="Combined-Shape" fill="#FFFFFF" fill-rule="nonzero"></path>
                <path d="M572.848051,68.0985782 L572.848051,205.720024 C572.760431,226.618469 565.400494,244.412486 550.768018,259.102607 C536.135542,273.96761 518.524264,281.4 497.933654,281.4 C482.337362,281.4 468.055579,276.896846 455.087876,267.890403 C447.553472,262.570794 439.513155,252.796738 430.966927,238.568234 C429.260696,235.727556 430.180349,232.04156 433.021028,230.335331 C433.335268,230.146585 433.666145,229.987033 434.009507,229.858678 L461.948583,219.414518 C464.61793,218.416664 467.620901,219.434114 469.133955,221.849025 C472.597335,227.376756 475.888654,231.225423 479.007912,233.395024 C484.703187,237.417319 491.011704,239.428436 497.933654,239.428436 C507.046094,239.428436 514.800314,236.10572 521.196546,229.46019 C525.519113,225.029836 528.761023,217.029006 530.922274,205.457701 L530.922274,204.801896 C530.922274,204.547645 530.716164,204.341535 530.461913,204.341535 C530.408779,204.341535 530.356045,204.350733 530.306048,204.368723 C516.380825,209.379303 505.590027,211.884597 497.933654,211.884597 C477.167805,211.884597 459.468908,204.495927 444.836432,189.718365 C430.203956,174.76592 422.887828,156.884464 422.887828,136.07346 C422.887828,115.087573 430.203956,97.1623966 444.836432,82.2973934 C459.468908,67.4323901 477.167805,60 497.933654,60 C509.587063,60 520.58316,62.6231965 530.922274,67.8696682 C530.922274,64.6823832 533.506079,62.0985782 536.693364,62.0985782 L566.848051,62.0985782 C570.161759,62.0985782 572.848051,64.7848697 572.848051,68.0985782 Z M497.933654,170.044194 C507.046094,170.044194 514.800314,166.721479 521.196546,160.075948 C527.680397,153.430417 530.922274,145.429668 530.922274,136.07346 L530.922274,135.942299 C530.922274,126.586091 527.680397,118.541621 521.196546,111.808649 C514.800314,105.25056 507.046094,101.971564 497.933654,101.971564 C488.821214,101.971564 481.023185,105.25056 474.539333,111.808649 C468.055482,118.541621 464.813605,126.629811 464.813605,136.07346 C464.813605,145.429668 468.055482,153.430417 474.539333,160.075948 C481.023185,166.721479 488.821214,170.044194 497.933654,170.044194 Z" id="Combined-Shape" fill="#FFFFFF" fill-rule="nonzero"></path>
                <path d="M575.847255,205.2 L575.847255,24 C575.847255,20.6862915 578.533547,18 581.847255,18 L611.236277,18 C614.549985,18 617.236277,20.6862915 617.236277,24 L617.236277,205.2 C617.236277,208.513708 614.549985,211.2 611.236277,211.2 L581.847255,211.2 C578.533547,211.2 575.847255,208.513708 575.847255,205.2 Z" id="Path" fill="#FFFFFF" fill-rule="nonzero"></path>
                <path d="M748.536296,68.4 L748.536296,94.0085324 C748.536296,95.4384176 748.025643,96.8212965 747.09634,97.9080197 L693.771552,160.265799 C691.617924,162.784242 691.913665,166.571703 694.432108,168.72533 C695.518831,169.654633 696.90171,170.165286 698.331595,170.165286 L747.400159,170.165286 C750.713868,170.165286 753.400159,172.851578 753.400159,176.165286 L753.400159,205.2 C753.400159,208.513708 750.713868,211.2 747.400159,211.2 L631.099344,211.2 C627.785636,211.2 625.099344,208.513708 625.099344,205.2 L625.099344,179.591468 C625.099344,178.161582 625.609997,176.778704 626.5393,175.69198 L679.864089,113.334201 C682.017716,110.815758 681.721975,107.028297 679.203532,104.87467 C678.116809,103.945367 676.73393,103.434714 675.304045,103.434714 L626.235481,103.434714 C622.921773,103.434714 620.235481,100.748422 620.235481,97.4347137 L620.235481,68.4 C620.235481,65.0862915 622.921773,62.4 626.235481,62.4 L742.536296,62.4 C745.850005,62.4 748.536296,65.0862915 748.536296,68.4 Z" id="Path" fill="#FFFFFF" fill-rule="nonzero"></path>
                <path d="M129.843148,13.2 L129.843148,13.2 C142.278633,13.2 152.359586,23.280953 152.359586,35.7164388 L152.359586,163.723622 C152.359586,183.332161 146.652601,198.518939 135.23846,209.284411 C124.303905,219.761523 108.957391,225 89.1984577,225 L62.753465,225 C50.2916427,225 40.1893397,214.897697 40.1893397,202.435875 L40.1893397,202.435875 C40.1893397,189.974052 50.2916427,179.871749 62.753465,179.871749 L89.1984577,179.871749 C96.967747,179.871749 102.003322,178.814442 104.305334,176.699796 C106.319594,174.68127 107.326709,170.355922 107.326709,163.723622 L107.326709,35.7164388 C107.326709,23.280953 117.407662,13.2 129.843148,13.2 Z" id="j" fill="#FFFFFF" fill-rule="nonzero" transform="translate(96.274463, 119.100000) rotate(20.000000) translate(-96.274463, -119.100000) "></path>
                <circle id="Oval" fill="url(#radialGradient-1)" transform="translate(48.461146, 111.474000) rotate(-45.000000) translate(-48.461146, -111.474000) " cx="48.4611456" cy="111.474" r="34.0694821"></circle>
            </g>
        </g>
    </g>
</svg>